<svg
	width="20"
	height="20"
	viewBox="0 0 20 20"
	fill="currentColor"
	xmlns="http://www.w3.org/2000/svg"
>
	<path
		d="M9.5 3C10.3284 3 11 3.67157 11 4.5V7.5L10.9902 7.60059C10.9437 7.82855 10.7417 8 10.5 8C10.2583 8 10.0563 7.82855 10.0098 7.60059L10 7.5V4.5C10 4.22386 9.77614 4 9.5 4H4.5L4.39941 4.00977C4.17145 4.05629 4 4.25829 4 4.5V15.5C4 15.7761 4.22386 16 4.5 16H9.5C9.74171 16 9.94371 15.8286 9.99023 15.6006L10 15.5V12.5C10 12.2239 10.2239 12 10.5 12C10.7761 12 11 12.2239 11 12.5V15.5L10.9922 15.6533C10.9154 16.4097 10.2767 17 9.5 17H4.5C3.67157 17 3 16.3284 3 15.5V4.5C3 3.72334 3.59028 3.08461 4.34668 3.00781L4.5 3H9.5ZM12.6201 6.6748C12.7998 6.46522 13.1155 6.44063 13.3252 6.62012L16.8252 9.62012L16.8994 9.69922C16.9641 9.78514 17 9.89052 17 10C17 10.146 16.936 10.2849 16.8252 10.3799L13.3252 13.3799L13.2422 13.4375C13.0389 13.5503 12.7773 13.5086 12.6201 13.3252C12.4631 13.1417 12.4618 12.877 12.6045 12.6934L12.6748 12.6201L15.1484 10.5H7.5C7.22386 10.5 7 10.2761 7 10C7 9.72386 7.22386 9.5 7.5 9.5H15.1484L12.6748 7.37988C12.4652 7.20024 12.4406 6.88447 12.6201 6.6748Z"
	/>
</svg>
